<?xml version="1.0"?>
<svg xmlns="http://www.w3.org/2000/svg" id="outline" viewBox="0 0 512 512" width="512" height="512"><path d="M16,440a56.063,56.063,0,0,0,56,56H248a56.063,56.063,0,0,0,56-56,8,8,0,0,0-8-8h-8.861A55.823,55.823,0,0,0,304,392a8,8,0,0,0-8-8h-8.861A55.823,55.823,0,0,0,304,344a8,8,0,0,0-8-8h-8.861A55.823,55.823,0,0,0,304,296a8,8,0,0,0-8-8H242.851a30.618,30.618,0,0,0,3.637-16.437l-6.281-103.748A39.956,39.956,0,0,0,256,136V64H240v72a24,24,0,0,1-48,0V64H176v72a39.954,39.954,0,0,0,15.8,31.823l-6.29,103.725A30.642,30.642,0,0,0,189.149,288H138.828a30.473,30.473,0,0,0,3.665-16.4L136.47,152.2C150.91,142.211,160,123.877,160,104c0-30.879-21.532-56-48-56S64,73.121,64,104c0,19.877,9.09,38.211,23.53,48.2L81.513,271.5a30.645,30.645,0,0,0,3.66,16.5H24a8,8,0,0,0-8,8,55.823,55.823,0,0,0,16.861,40H24a8,8,0,0,0-8,8,55.823,55.823,0,0,0,16.861,40H24a8,8,0,0,0-8,8,55.823,55.823,0,0,0,16.861,40H24A8,8,0,0,0,16,440ZM80,104c0-22.056,14.355-40,32-40s32,17.944,32,40c0,16.024-7.665,30.472-19.527,36.807a8,8,0,0,0-4.222,7.46L126.519,272.5a14.547,14.547,0,1,1-29.032-.1l6.262-124.136a8,8,0,0,0-4.222-7.46C87.665,134.472,80,120.024,80,104ZM205.4,283.413a14.418,14.418,0,0,1-3.915-10.882l5.912-97.473a39.767,39.767,0,0,0,17.222,0l5.9,97.491A14.548,14.548,0,0,1,205.4,283.413ZM32.8,304H287.2A40.071,40.071,0,0,1,248,336H72A40.071,40.071,0,0,1,32.8,304Zm0,48H287.2A40.071,40.071,0,0,1,248,384H72A40.071,40.071,0,0,1,32.8,352Zm0,48H287.2A40.071,40.071,0,0,1,248,432H72A40.071,40.071,0,0,1,32.8,400ZM72,448H287.2A40.071,40.071,0,0,1,248,480H72a40.071,40.071,0,0,1-39.2-32Z"/><path d="M360,208c-.865,0-1.732.021-2.6.037l.753-1.883,36.817-14.726a8,8,0,0,0,0-14.856l-36.817-14.726-14.726-36.817a8,8,0,0,0-14.856,0l-14.726,36.817-36.817,14.726a8,8,0,0,0,0,14.856l36.817,14.726,3.476,8.691a135.569,135.569,0,0,0-58.679,38.473l11.92,10.672a119.613,119.613,0,0,1,52.717-34.251l5.292,13.232a8,8,0,0,0,14.856,0l7.447-18.617c3.033-.228,6.086-.354,9.125-.354a120,120,0,1,1-37.223,234.117l-4.959,15.213A135.887,135.887,0,0,0,360,480c74.99,0,136-61.01,136-136S434.99,208,360,208Zm-24,10.459-8.572-21.43a8.005,8.005,0,0,0-4.457-4.457L301.541,184l21.43-8.572a8.005,8.005,0,0,0,4.457-4.457L336,149.541l8.572,21.43a8.005,8.005,0,0,0,4.457,4.457L370.459,184l-21.43,8.572a8.005,8.005,0,0,0-4.457,4.457Z"/><path d="M360,416a71.969,71.969,0,0,1-35.921-9.585l-7.994,13.859A88,88,0,1,0,308.272,272.8l9.415,12.937A72,72,0,1,1,360,416Z"/><rect x="208" y="64" width="16" height="64"/><path d="M490.53,96.41,446.324,81.676,431.59,37.47a8,8,0,0,0-15.18,0L401.676,81.676,357.47,96.41a8,8,0,0,0,0,15.18l44.206,14.734L416.41,170.53a8,8,0,0,0,15.18,0l14.734-44.206L490.53,111.59a8,8,0,0,0,0-15.18Zm-53.06,16a8,8,0,0,0-5.06,5.06L424,142.7l-8.41-25.232a8,8,0,0,0-5.06-5.06L385.3,104l25.232-8.41a8,8,0,0,0,5.06-5.06L424,65.3l8.41,25.232a8,8,0,0,0,5.06,5.06L462.7,104Z"/></svg>
