<svg id="Capa_1" enable-background="new 0 0 511.003 511.003" height="512" viewBox="0 0 511.003 511.003" width="512" xmlns="http://www.w3.org/2000/svg"><g><path d="m498.322 420.524h-27.655v-110.879c0-26.537-10.821-51.628-30.471-70.652-17.773-17.208-40.986-27.718-66-30.026v-15.895c0-8.547-6.953-15.5-15.5-15.5h-39.996c-8.547 0-15.5 6.953-15.5 15.5v12.573h-11.249v-67.175c7.932-.698 14.175-7.369 14.175-15.479v-21.354h12.712c8.573 0 15.548-6.975 15.548-15.548v-28.592c0-7.751-5.708-14.177-13.137-15.342l-5.75-32.655c-1.124-6.256-7.125-10.436-13.35-9.32l-52.425 9.229c-3.029.542-5.667 2.226-7.427 4.744-1.766 2.527-2.439 5.591-1.899 8.607l3.38 19.188h-25.947l3.669-13.695c1.631-6.095-2.001-12.405-8.129-14.074l-51.468-13.782c-6.103-1.633-12.413 2.003-14.074 8.129l-8.95 33.422h-18.846v-19.11c0-6.354-5.17-11.524-11.524-11.524h-53.21c-6.354 0-11.524 5.17-11.524 11.524v19.11h-.927c-5.911 0-11.233 3.279-13.889 8.559-2.655 5.278-2.115 11.504 1.404 16.244l21.206 28.613c2.922 3.928 7.59 6.273 12.486 6.273h43.22c4.142 0 7.5-3.358 7.5-7.5s-3.358-7.5-7.5-7.5h-43.22c-.18 0-.344-.083-.443-.215l-21.202-28.607c-.085-.114-.201-.27-.051-.567.15-.299.346-.299.488-.299h165.193c.007 0 .015.001.022.001.006 0 .012-.001.018-.001h110.759c.297 0 .548.251.548.548v28.592c0 .297-.251.548-.548.548h-176.353c-4.142 0-7.5 3.358-7.5 7.5s3.358 7.5 7.5 7.5h66.445v21.354c0 8.11 6.244 14.781 14.175 15.479v67.174h-66.249v-17.46c0-13.311-9.904-24.141-22.078-24.141h-109.015c-11.604 0-24.583 10.324-24.583 24.141v298.678c0 13.311 9.899 24.14 22.068 24.14h222.661c12.168 0 22.068-10.829 22.068-24.14v-69.539c0-4.142-3.358-7.5-7.5-7.5s-7.5 3.358-7.5 7.5v69.539c0 4.955-3.237 9.14-7.068 9.14h-222.661c-3.831 0-7.068-4.186-7.068-9.14v-298.678c0-4.708 5.398-9.141 9.583-9.141h109.016c3.836 0 7.078 4.186 7.078 9.141v76.983c0 40.344 33.612 73.166 74.926 73.166h29.125c3.831 0 7.068 4.19 7.068 9.15v34.628c0 4.142 3.358 7.5 7.5 7.5s7.5-3.358 7.5-7.5v-34.628c0-13.316-9.899-24.15-22.068-24.15h-29.125c-21.06 0-39.604-10.609-50.294-26.601h136.71v12.57c0 8.547 6.953 15.5 15.5 15.5h39.997c8.547 0 15.5-6.953 15.5-15.5v-13.347c6.574 2.75 11.046 7.945 11.046 13.689v110.879h-90.75c-6.341 0-11.5 5.159-11.5 11.5v35.479c0 23.986 19.514 43.5 43.5 43.5h139.829c23.986 0 43.5-19.514 43.5-43.5v-35.479c0-6.34-5.158-11.499-11.5-11.499zm-242.55-396.949 45.562-8.021 4.648 26.395h-46.974zm-94.361-7.781 44.691 11.968-3.8 14.187h-47.894zm-102.638 10.52h46.259v15.635h-46.259zm396.894 283.331v110.879h-20.212v-110.879c0-33.109-26.377-60.594-61.258-65.256v-20.338c45.577 4.956 81.47 41.919 81.47 85.594zm-164.541-208.007v21.354c0 .303-.246.549-.548.549h-66.098c-.302 0-.548-.246-.548-.549v-21.354zm-53.019 36.902h38.844v67.104h-38.844zm-78.759 143.192c-1.611-5.253-2.49-10.81-2.49-16.565v-44.523h146.342v61.088zm199.849 27.571c0 .276-.224.5-.5.5h-39.997c-.276 0-.5-.224-.5-.5v-116.232c0-.276.224-.5.5-.5h39.997c.276 0 .5.224.5.5zm15-29.132v-20.607c26.488 4.413 46.258 25.194 46.258 50.081v110.879h-20.212v-110.879c0-13.885-10.802-25.679-26.046-29.474zm120.625 187.332c0 15.715-12.785 28.5-28.5 28.5h-139.829c-15.715 0-28.5-12.785-28.5-28.5v-31.979h196.829z"/><path d="m146.462 483.789c14.544 0 26.376-11.832 26.376-26.376s-11.832-26.376-26.376-26.376c-14.543 0-26.375 11.832-26.375 26.376s11.831 26.376 26.375 26.376zm0-37.752c6.273 0 11.376 5.103 11.376 11.376s-5.103 11.376-11.376 11.376c-6.272 0-11.375-5.103-11.375-11.376s5.102-11.376 11.375-11.376z"/><path d="m185.238 457.413c0 14.544 11.832 26.376 26.376 26.376s26.376-11.832 26.376-26.376-11.832-26.376-26.376-26.376-26.376 11.832-26.376 26.376zm37.752 0c0 6.273-5.103 11.376-11.376 11.376s-11.376-5.103-11.376-11.376 5.103-11.376 11.376-11.376 11.376 5.103 11.376 11.376z"/><path d="m42.701 355.519h86.801c4.142 0 7.5-3.358 7.5-7.5s-3.358-7.5-7.5-7.5h-86.801c-4.142 0-7.5 3.358-7.5 7.5s3.358 7.5 7.5 7.5z"/><path d="m42.701 381.368h86.801c4.142 0 7.5-3.358 7.5-7.5s-3.358-7.5-7.5-7.5h-86.801c-4.142 0-7.5 3.358-7.5 7.5s3.358 7.5 7.5 7.5z"/><path d="m42.701 407.217h86.801c4.142 0 7.5-3.358 7.5-7.5s-3.358-7.5-7.5-7.5h-86.801c-4.142 0-7.5 3.358-7.5 7.5s3.358 7.5 7.5 7.5z"/></g></svg>